<?xml version="1.0" standalone="no"?>
<!DOCTYPE svg PUBLIC "-//W3C//DTD SVG 20010904//EN"
 "http://www.w3.org/TR/2001/REC-SVG-20010904/DTD/svg10.dtd">
<svg version="1.0" xmlns="http://www.w3.org/2000/svg"
 width="225.000000pt" height="225.000000pt" viewBox="0 0 225.000000 225.000000"
 preserveAspectRatio="xMidYMid meet">

<g transform="translate(0.000000,225.000000) scale(0.100000,-0.100000)"
fill="#000000" stroke="none">
<path d="M1463 1683 c9 -2 23 -2 30 0 6 3 -1 5 -18 5 -16 0 -22 -2 -12 -5z"/>
<path d="M1535 1671 c4 -12 2 -21 -4 -21 -6 0 -11 -18 -11 -40 0 -50 -17 -60
-102 -60 -120 0 -241 -46 -319 -122 -90 -88 -14 -176 169 -194 39 -3 72 -9 72
-13 0 -13 -153 -186 -171 -193 -28 -11 -23 4 11 37 16 16 50 54 75 86 l45 57
-48 7 c-26 4 -62 13 -80 21 -32 13 -33 13 -26 -9 3 -12 15 -39 25 -59 22 -43
24 -68 6 -68 -7 0 -23 33 -36 74 -12 41 -29 81 -38 87 -8 7 -36 13 -61 13 -41
1 -47 -2 -47 -19 0 -17 6 -20 37 -17 43 3 46 -2 72 -96 17 -61 17 -65 -1 -84
-34 -38 -50 -40 -91 -13 -21 13 -60 29 -87 34 -166 31 -310 -89 -309 -259 1
-100 47 -176 135 -225 45 -25 65 -29 124 -29 108 0 195 56 237 152 26 58 26
160 0 212 l-19 39 23 22 c22 21 23 21 17 1 -4 -16 6 -28 49 -56 29 -19 66 -38
82 -42 l29 -7 -27 39 c-43 63 -39 71 94 189 66 59 120 113 120 121 0 28 -55
72 -113 90 -61 19 -71 31 -34 38 12 3 36 8 52 11 65 13 68 12 77 -28 4 -21 15
-51 23 -67 18 -34 29 -36 135 -19 59 9 73 8 92 -5 12 -9 35 -16 50 -16 22 0
28 5 28 21 0 39 -26 47 -130 42 -119 -7 -136 1 -145 61 -4 24 -4 58 0 75 5 26
11 31 35 31 17 0 33 -8 42 -22 13 -20 17 -21 32 -9 9 7 16 20 16 27 0 8 7 14
16 14 10 0 14 7 12 23 -3 19 2 22 27 22 25 0 31 4 33 26 6 51 -74 117 -161
133 -36 7 -38 6 -32 -13z m-571 -660 c45 -25 44 -41 -1 -42 l-38 -2 34 -6 c30
-5 32 -8 19 -19 -9 -7 -35 -17 -59 -21 -42 -8 -42 -9 -10 -10 l34 -1 -26 -20
c-18 -14 -42 -20 -84 -22 l-58 -1 54 -6 c48 -5 52 -8 38 -20 -21 -17 -22 -30
-2 -37 9 -4 46 22 100 71 l84 77 21 -34 c29 -47 26 -58 -17 -59 l-38 -2 40 -6
c34 -5 40 -10 43 -33 3 -27 1 -28 -40 -30 l-43 -1 38 -4 c37 -4 50 -24 25 -40
-7 -4 -65 -10 -128 -14 l-115 -6 113 -1 c61 -1 112 -5 112 -10 0 -4 -7 -17
-15 -29 -12 -17 -31 -24 -78 -30 -61 -7 -61 -8 -22 -13 l40 -6 -45 -13 c-90
-26 -196 13 -247 90 -35 53 -43 140 -18 190 59 117 190 166 289 110z"/>
<path d="M1258 1603 c46 -2 118 -2 160 0 42 1 5 3 -83 3 -88 0 -123 -2 -77 -3z"/>
<path d="M1085 1550 c-40 -5 -28 -7 58 -8 66 -1 107 2 107 8 0 11 -85 11 -165
0z"/>
<path d="M805 1470 l-140 -6 197 -2 c123 -1 199 2 203 8 6 10 -10 10 -260 0z"/>
<path d="M680 1350 c-36 -4 14 -8 148 -11 157 -3 202 -1 202 9 0 9 -35 12
-147 10 -82 -1 -173 -4 -203 -8z"/>
<path d="M1622 1248 c-41 -8 -52 -13 -48 -25 3 -8 9 -25 12 -38 6 -25 -2 -28
-123 -41 -50 -5 -67 -12 -89 -35 -32 -34 -35 -34 73 -13 46 8 87 14 91 12 4
-2 -48 -57 -116 -122 l-123 -120 -45 17 c-38 14 -44 14 -44 2 0 -8 -4 -15 -10
-15 -5 0 -10 11 -10 24 0 13 -6 26 -14 29 -11 4 -12 -2 -4 -33 7 -27 14 -37
24 -33 8 3 14 0 14 -6 0 -6 -5 -11 -10 -11 -6 0 -15 -11 -22 -25 -16 -36 6
-84 43 -92 16 -3 29 -10 29 -15 0 -5 -13 -7 -30 -3 -19 4 -30 3 -30 -4 0 -6 9
-11 19 -11 11 0 21 -5 23 -11 6 -18 118 -2 118 17 0 13 -24 19 -64 15 -19 -1
-19 0 2 22 41 44 19 117 -36 117 -12 0 -22 5 -22 10 0 16 22 12 58 -10 l33
-20 142 135 c97 93 143 131 149 122 13 -20 9 -26 -30 -46 -185 -95 -179 -369
10 -451 92 -40 212 -26 290 33 126 94 131 297 10 397 -47 39 -131 64 -187 56
l-43 -5 -18 64 c-9 36 -14 68 -11 71 4 4 23 7 43 8 45 1 56 -19 20 -35 -28
-13 -36 -49 -11 -49 31 0 73 30 83 59 10 28 9 29 -23 35 -18 4 -38 13 -45 21
-7 8 -15 14 -19 14 -3 -1 -30 -6 -59 -11z m138 -228 c-12 -8 -9 -10 13 -10 16
0 38 -5 50 -12 22 -11 22 -12 -8 -24 -30 -13 -29 -13 23 -14 28 0 52 -2 52 -4
0 -2 3 -11 6 -19 4 -12 -3 -17 -28 -20 l-33 -4 36 -1 c38 -2 69 -26 53 -42 -5
-5 -38 -11 -74 -13 l-65 -3 78 -2 77 -2 0 -30 c0 -29 -1 -30 -52 -32 l-53 -2
48 -3 c43 -4 48 -7 45 -26 -3 -21 -9 -22 -133 -27 l-130 -6 100 -3 c55 -2 111
-6 125 -10 l24 -7 -31 -22 c-18 -13 -47 -23 -70 -23 -37 -1 -37 -2 -8 -8 l30
-7 -34 -12 c-53 -19 -139 -15 -188 9 -52 25 -100 81 -114 133 -21 77 28 183
103 222 34 18 36 17 48 -25 7 -25 5 -33 -8 -41 -15 -9 -15 -10 2 -8 14 2 21
-5 27 -24 6 -24 4 -28 -14 -29 -21 -1 -21 -2 -2 -6 41 -10 36 -22 -11 -28 -73
-10 -75 -13 -12 -14 31 -1 60 -5 63 -11 3 -5 15 -10 26 -10 21 0 25 20 9 48
-14 24 -49 170 -42 176 3 4 24 6 46 6 30 0 37 -3 26 -10z"/>
<path d="M670 1170 l-135 -6 165 -2 c91 -1 209 -5 263 -9 86 -5 97 -4 97 10 0
15 -15 17 -127 15 -71 -1 -189 -5 -263 -8z"/>
<path d="M515 1090 c-30 -5 -16 -8 56 -9 53 0 111 -4 128 -7 24 -5 31 -3 31
10 0 14 -13 16 -87 15 -49 -1 -106 -5 -128 -9z"/>
<path d="M1287 1032 c-24 -25 -26 -31 -16 -64 12 -47 29 -58 29 -21 1 15 7 39
15 53 16 28 20 60 7 60 -5 0 -20 -13 -35 -28z"/>
<path d="M425 960 c-49 -7 -49 -7 21 -8 39 -1 92 -5 118 -8 38 -6 46 -4 46 10
0 13 -11 16 -67 14 -38 0 -90 -4 -118 -8z"/>
<path d="M475 843 c-107 -4 -142 -23 -43 -23 36 0 86 -3 112 -6 42 -6 46 -5
46 15 0 11 -6 20 -12 19 -7 -1 -53 -4 -103 -5z"/>
<path d="M1378 813 c12 -2 30 -2 40 0 9 3 -1 5 -23 4 -22 0 -30 -2 -17 -4z"/>
<path d="M1403 763 c9 -2 23 -2 30 0 6 3 -1 5 -18 5 -16 0 -22 -2 -12 -5z"/>
<path d="M480 751 l-95 -6 70 -7 c107 -12 135 -10 135 7 0 8 -3 14 -7 13 -5
-1 -51 -4 -103 -7z"/>
<path d="M1403 723 c9 -2 25 -2 35 0 9 3 1 5 -18 5 -19 0 -27 -2 -17 -5z"/>
<path d="M550 650 l-55 -7 73 -1 c42 -1 72 2 72 8 0 11 -4 11 -90 0z"/>
<path d="M1310 620 c-154 -6 -149 -8 53 -18 110 -6 127 -5 125 8 -4 18 2 17
-178 10z"/>
</g>
</svg>
