<?xml version="1.0" standalone="no"?>
<!DOCTYPE svg PUBLIC "-//W3C//DTD SVG 20010904//EN"
 "http://www.w3.org/TR/2001/REC-SVG-20010904/DTD/svg10.dtd">
<svg version="1.0" xmlns="http://www.w3.org/2000/svg"
 width="360.000000pt" height="360.000000pt" viewBox="0 0 360.000000 360.000000"
 preserveAspectRatio="xMidYMid meet">

<g transform="translate(0.000000,360.000000) scale(0.100000,-0.100000)"
fill="#000000" stroke="none">
<path d="M1458 3083 c-10 -9 -37 -18 -60 -20 -54 -5 -73 -22 -64 -58 9 -35 32
-42 60 -16 12 12 26 18 30 14 4 -4 11 -1 16 7 6 9 21 14 39 12 25 -3 31 1 37
22 6 27 -9 56 -30 56 -6 0 -19 -8 -28 -17z m47 -13 c7 -11 -11 -40 -24 -40 -3
0 -12 4 -20 9 -12 8 -12 12 -2 25 15 18 37 21 46 6z m-108 -28 c10 -6 9 -13
-3 -30 -20 -29 -44 -28 -44 1 0 36 19 47 47 29z"/>
<path d="M1457 2866 c14 -41 13 -48 -5 -89 -26 -59 -75 -90 -195 -123 -130
-36 -166 -53 -193 -93 -30 -45 -31 -100 -3 -151 19 -33 64 -70 86 -70 4 0 -6
9 -24 20 -64 38 -88 111 -58 174 23 48 61 69 180 100 117 31 175 63 210 114
27 39 34 107 15 143 -19 35 -27 19 -13 -25z"/>
<path d="M3302 2840 c-25 -27 -58 -107 -37 -90 8 7 17 22 21 33 10 34 45 67
71 67 39 0 60 -34 104 -170 39 -119 41 -132 27 -147 -15 -14 -19 -12 -45 25
-15 22 -36 54 -45 71 -13 24 -24 31 -48 31 -16 0 -30 -5 -30 -11 0 -5 5 -7 10
-4 21 13 51 -8 74 -53 32 -63 62 -90 84 -76 28 18 25 59 -9 162 -38 117 -63
167 -84 176 -33 12 -74 6 -93 -14z"/>
<path d="M3139 2626 c-88 -72 -143 -138 -184 -220 -40 -79 -43 -106 -15 -131
11 -10 20 -22 20 -28 0 -5 -27 15 -59 46 -86 79 -290 207 -331 207 -5 0 -19
-18 -30 -41 -12 -23 -24 -39 -26 -36 -3 3 4 24 16 46 22 44 23 41 -24 55 -22
7 -94 -78 -163 -189 -56 -92 -147 -194 -183 -207 -34 -12 103 -340 223 -535
149 -239 380 -487 579 -617 44 -30 60 -36 75 -28 35 19 56 50 50 74 -10 40
-186 339 -244 415 -30 40 -83 103 -117 140 -61 65 -64 71 -76 143 -6 41 -30
163 -51 270 -42 212 -46 241 -21 165 16 -45 21 -50 62 -62 75 -22 262 -46 307
-39 98 13 148 58 207 187 45 98 128 366 121 390 -5 15 -52 49 -68 49 -2 0 -32
-24 -68 -54z m-729 -362 c0 -11 -82 -105 -88 -100 -6 7 69 106 80 106 4 0 8
-3 8 -6z"/>
<path d="M2055 2648 c-89 -7 -200 -42 -272 -84 -68 -39 -175 -145 -208 -205
-38 -71 -25 -71 18 0 53 84 146 167 242 213 173 83 374 89 582 19 99 -33 100
-34 73 -17 -87 54 -282 87 -435 74z"/>
<path d="M2085 2590 c-3 -5 1 -10 10 -10 9 0 13 5 10 10 -3 6 -8 10 -10 10 -2
0 -7 -4 -10 -10z"/>
<path d="M2400 2530 c0 -5 5 -10 10 -10 6 0 10 5 10 10 0 6 -4 10 -10 10 -5 0
-10 -4 -10 -10z"/>
<path d="M2320 2389 c0 -5 5 -7 10 -4 6 3 10 8 10 11 0 2 -4 4 -10 4 -5 0 -10
-5 -10 -11z"/>
<path d="M2185 2366 c-40 -61 -65 -140 -63 -206 l1 -65 7 74 c6 53 18 93 43
145 36 72 42 98 12 52z"/>
<path d="M1990 2349 c0 -5 5 -7 10 -4 6 3 10 8 10 11 0 2 -4 4 -10 4 -5 0 -10
-5 -10 -11z"/>
<path d="M1602 2316 c-37 -43 -55 -117 -50 -209 1 -37 2 -67 1 -67 0 0 -13 20
-27 44 -41 70 -50 65 -11 -7 19 -35 41 -92 49 -128 12 -57 14 -60 14 -24 0 22
-3 79 -7 127 -10 118 1 189 38 249 17 27 29 49 27 49 -2 0 -18 -15 -34 -34z"/>
<path d="M2087 2333 c-4 -3 -6 -43 -5 -87 l1 -81 7 85 c7 90 7 94 -3 83z"/>
<path d="M1740 2286 c0 -9 5 -16 10 -16 6 0 10 4 10 9 0 6 -4 13 -10 16 -5 3
-10 -1 -10 -9z"/>
<path d="M1420 2277 c0 -4 6 -18 14 -30 8 -12 16 -35 18 -51 3 -25 -1 -30 -42
-45 l-45 -17 -15 30 c-19 37 -42 52 -66 41 -17 -8 -16 -9 8 -12 40 -6 49 -24
53 -110 4 -75 33 -181 68 -249 17 -33 71 -86 104 -103 30 -16 99 -14 132 4 84
43 167 223 205 441 17 96 19 110 11 103 -2 -3 -18 -63 -34 -135 -52 -231 -113
-354 -196 -394 -114 -55 -215 42 -266 256 -11 47 -18 92 -16 98 4 10 57 34
114 51 16 5 -4 84 -28 110 -11 11 -19 16 -19 12z"/>
<path d="M1373 2253 c9 -9 20 -13 24 -9 4 4 1 11 -7 16 -25 16 -35 11 -17 -7z"/>
<path d="M1307 2243 c-13 -13 -7 -18 23 -18 33 0 39 9 14 19 -20 8 -29 8 -37
-1z"/>
<path d="M2205 2240 c3 -5 8 -10 11 -10 2 0 4 5 4 10 0 6 -5 10 -11 10 -5 0
-7 -4 -4 -10z"/>
<path d="M1895 2230 c3 -5 8 -10 11 -10 2 0 4 5 4 10 0 6 -5 10 -11 10 -5 0
-7 -4 -4 -10z"/>
<path d="M1615 2110 c-3 -5 -1 -10 4 -10 6 0 11 5 11 10 0 6 -2 10 -4 10 -3 0
-8 -4 -11 -10z"/>
<path d="M1506 2001 c-4 -5 -2 -12 3 -15 5 -4 12 -2 15 3 4 5 2 12 -3 15 -5 4
-12 2 -15 -3z"/>
<path d="M1720 1960 c0 -5 5 -10 10 -10 6 0 10 5 10 10 0 6 -4 10 -10 10 -5 0
-10 -4 -10 -10z"/>
<path d="M3140 971 c0 -5 9 -13 20 -16 54 -17 50 -95 -8 -164 -21 -25 -55 -72
-75 -103 -37 -59 -61 -78 -97 -78 -35 0 -34 28 3 108 46 99 71 202 48 202 -4
0 -11 -24 -14 -53 -3 -30 -21 -89 -42 -134 -44 -97 -44 -127 2 -131 46 -5 67
10 115 81 23 34 56 80 75 101 61 73 62 151 2 182 -16 8 -29 10 -29 5z"/>
</g>
</svg>
